<svg width="54" height="58" viewBox="0 0 54 58" fill="none" xmlns="http://www.w3.org/2000/svg">
<path d="M48.2436 43.9734C48.2436 45.4342 48.3763 46.4967 48.7745 47.0279C49.1726 47.6919 49.8363 47.9575 51.0307 47.9575C51.4289 47.9575 51.8271 47.9575 52.2252 47.9575C52.7561 47.9575 53.287 47.8247 53.8179 47.6919V55.7928C53.4197 55.9256 52.8888 56.0584 52.2252 56.324C51.5616 56.4568 50.898 56.5896 50.2344 56.7224C49.5708 56.8552 48.9072 56.988 48.1109 56.988C47.4473 57.1208 46.7837 57.1208 46.3855 57.1208C43.9965 57.1208 42.0057 56.5896 40.413 55.66C38.8204 54.7304 37.7586 53.004 37.3604 50.6135C34.9714 52.8712 32.1843 54.5976 28.7335 55.5272C25.2828 56.5896 22.0975 57.1208 18.9122 57.1208C16.5232 57.1208 14.2669 56.8552 12.0107 56.1912C9.75442 55.5272 7.89629 54.5976 6.17091 53.2696C4.44553 51.9416 3.11832 50.3479 2.18927 48.3559C1.1275 46.3639 0.72937 44.1062 0.72937 41.4502C0.72937 38.1301 1.39297 35.4741 2.58746 33.3493C3.78195 31.2244 5.37462 29.6308 7.36544 28.4356C9.35626 27.2404 11.4798 26.4435 14.0015 25.9123C16.3905 25.3811 18.9122 24.9827 21.4339 24.7171C23.5574 24.3187 25.5482 24.0531 27.5391 23.7875C29.5299 23.6547 31.1226 23.3891 32.5825 22.8579C34.0424 22.4595 35.2369 21.7955 36.0332 20.9987C36.8295 20.2018 37.3604 18.8738 37.3604 17.1474C37.3604 15.6866 36.9623 14.3586 36.2987 13.4289C35.6351 12.4993 34.706 11.7025 33.6442 11.1713C32.5825 10.6401 31.388 10.3745 30.0608 10.1089C28.7335 9.97608 27.5391 9.84327 26.3446 9.84327C23.0265 9.84327 20.3721 10.5073 18.2486 11.9681C16.125 13.2961 14.9306 15.421 14.6651 18.3426H2.85288C3.11832 14.8898 3.91468 12.1009 5.37462 9.84327C6.83455 7.58563 8.69263 5.72641 10.9489 4.39839C13.2052 3.07036 15.7269 2.00795 18.514 1.47674C21.3012 0.945534 24.221 0.679932 27.1409 0.679932C29.7953 0.679932 32.317 0.945534 34.8387 1.47674C37.3604 2.00795 39.6167 2.93757 41.7403 4.13279C43.7311 5.328 45.4564 6.92163 46.6509 8.91366C47.8454 10.9057 48.509 13.2961 48.509 16.085V43.9734H48.2436ZM36.4314 29.0996C34.706 30.2948 32.4498 30.9588 29.7953 31.2244C27.1409 31.49 24.6192 31.8884 21.9648 32.2868C20.7703 32.5524 19.5758 32.8181 18.3813 33.2165C17.1868 33.6149 16.125 34.1461 15.3287 34.8101C14.3997 35.4741 13.7361 36.2709 13.2052 37.3333C12.6743 38.3957 12.4088 39.7238 12.4088 41.1846C12.4088 42.5126 12.807 43.575 13.6033 44.5046C14.3996 45.4343 15.3287 46.0983 16.3905 46.6295C17.4522 47.1607 18.6467 47.5591 19.8412 47.6919C21.1684 47.9575 22.2302 47.9575 23.292 47.9575C24.6192 47.9575 25.9464 47.8247 27.5391 47.4263C28.999 47.0279 30.4589 46.4967 31.7862 45.6998C33.1134 44.903 34.3079 43.8406 35.1042 42.5126C36.0332 41.1846 36.4314 39.7238 36.4314 37.8645V29.0996Z" fill="white"/>
</svg>
