<svg width="52" height="58" viewBox="0 0 52 58" fill="none" xmlns="http://www.w3.org/2000/svg">
<path d="M12.3386 32.2869C12.3386 34.4117 12.604 36.4037 13.2676 38.263C13.7985 40.255 14.7276 41.8486 15.9221 43.3094C17.1166 44.7703 18.5765 45.9655 20.3018 46.7623C22.0272 47.5591 24.2835 48.0903 26.6725 48.0903C30.1232 48.0903 32.9104 47.2935 35.0339 45.8327C37.1575 44.3719 38.7501 42.1142 39.6792 39.1926H50.8278C50.1642 42.1142 49.1024 44.6375 47.6425 46.8951C46.1825 49.1527 44.3244 51.012 42.2009 52.6056C40.0773 54.1992 37.6884 55.2616 35.0339 56.0584C32.3795 56.8553 29.5923 57.2537 26.6725 57.2537C22.4254 57.2537 18.7092 56.5897 15.5239 55.1288C12.3386 53.8008 9.55143 51.8088 7.29517 49.2855C5.0389 46.7623 3.3135 43.8406 2.25173 40.3878C1.05724 36.9349 0.526367 33.2165 0.526367 29.0996C0.526367 25.3811 1.18997 21.6627 2.38446 18.3426C3.57895 14.8898 5.30432 11.9681 7.56059 9.31209C9.81685 6.78885 12.4713 4.66401 15.6566 3.20319C18.8419 1.74237 22.4254 0.945557 26.407 0.945557C30.6541 0.945557 34.3703 1.87517 37.6884 3.6016C41.0064 5.32803 43.7935 7.71846 46.0498 10.5073C48.3061 13.429 49.8987 16.749 50.8278 20.4675C51.8895 24.1859 52.0223 28.0372 51.6241 32.0213H12.3386V32.2869ZM39.8119 24.4515C39.6792 22.5923 39.281 20.8659 38.6174 19.1394C37.9538 17.413 37.0247 15.9522 35.963 14.6242C34.7685 13.2962 33.4413 12.3665 31.8486 11.5697C30.256 10.7729 28.3979 10.3745 26.407 10.3745C24.2835 10.3745 22.4254 10.7729 20.8327 11.4369C19.1073 12.1009 17.6474 13.1633 16.4529 14.4914C15.2584 15.8194 14.3294 17.2802 13.533 19.0066C12.8694 20.7331 12.4713 22.5923 12.3386 24.5843H39.8119V24.4515Z" fill="white"/>
</svg>
