<svg width="48" height="75" viewBox="0 0 48 75" fill="none" xmlns="http://www.w3.org/2000/svg">
<path d="M0.545288 0.220459H12.3575V27.5777H12.6229C14.0829 25.1873 16.2064 23.1952 19.1263 21.6016C21.9134 20.008 25.0987 19.2112 28.6822 19.2112C34.522 19.2112 39.1672 20.672 42.4852 23.7264C45.8033 26.7809 47.5287 31.2962 47.5287 37.4051V74.0584H35.7165V40.3267C35.5837 36.077 34.6547 33.0226 33.062 31.1633C31.4694 29.3041 28.8149 28.3745 25.3642 28.3745C23.3734 28.3745 21.648 28.7729 20.0553 29.4369C18.4627 30.1009 17.1355 31.1633 16.0737 32.4914C15.0119 33.8194 14.0829 35.2802 13.552 37.0066C12.8884 38.7331 12.6229 40.5923 12.6229 42.4515V73.9256H0.810737V0.220459H0.545288Z" fill="white"/>
</svg>
