<svg width="397" height="361" viewBox="0 0 397 361" fill="none" xmlns="http://www.w3.org/2000/svg">
<g clip-path="url(#clip0_4_3605)">
<path d="M192.422 300.445V110.5H3.87948V300.445H192.422ZM196.302 304.327H0V106.618H196.302V304.327Z" fill="#0080FF"/>
<path d="M99.4438 157.986L102.159 155.269L157.765 210.907L155.05 213.624L99.4438 157.986Z" fill="#0080FF"/>
<path d="M87.5469 107.006L91.8143 107.653L94.5299 108.429L195.138 209.225L192.422 211.942L87.5469 107.006Z" fill="#0080FF"/>
<path d="M91.4264 131.332L174.835 214.789L177.292 214.918L180.784 215.306L90.0039 124.344L91.4264 127.45V131.332Z" fill="#0080FF"/>
<path d="M108.108 109.335L110.953 106.618L196.301 192.145L193.586 194.862L108.108 109.335Z" fill="#0080FF"/>
<path d="M128.152 109.335L130.868 106.618L195.138 171.054L192.422 173.772L128.152 109.335Z" fill="#0080FF"/>
<path d="M167.076 110.5L169.921 107.782L195.138 133.143L192.422 135.86L167.076 110.5Z" fill="#0080FF"/>
<path d="M147.549 109.335L150.265 106.618L195.138 151.646L192.422 154.363L147.549 109.335Z" fill="#0080FF"/>
<path d="M196.948 214.789C255.011 214.789 302.341 167.432 302.341 109.335C302.341 51.2387 255.011 3.88172 196.948 3.88172C138.885 3.88172 91.5557 51.2387 91.5557 109.335C91.5557 167.432 138.756 214.789 196.948 214.789ZM196.948 218.67C136.558 218.67 87.6763 169.761 87.6763 109.335C87.6763 48.9097 136.558 0 196.948 0C257.339 0 306.22 48.9097 306.22 109.335C306.22 169.761 257.21 218.67 196.948 218.67Z" fill="white"/>
<path d="M287.599 214.918C345.791 214.918 393.12 167.561 393.12 109.335C393.12 51.1093 345.791 3.75233 287.599 3.75233H196.948C138.756 3.75233 91.4264 51.1093 91.4264 109.335C91.4264 167.561 138.756 214.918 196.948 214.918H287.599ZM287.599 218.8H196.948C136.558 218.8 87.5469 169.761 87.5469 109.335C87.6762 49.0391 136.558 0 196.948 0H287.599C347.989 0 397 49.0391 397 109.465C397 169.89 347.989 218.8 287.599 218.8Z" fill="#FFB32C"/>
<path fill-rule="evenodd" clip-rule="evenodd" d="M244.019 217.764L300.53 275.473V216.6L244.019 217.764Z" fill="#FFB32C"/>
<path fill-rule="evenodd" clip-rule="evenodd" d="M79.7879 303.292L23.2769 361V302.127L79.7879 303.292Z" fill="#0080FF"/>
</g>
<defs>
<clipPath id="clip0_4_3605">
<rect width="397" height="361" fill="white"/>
</clipPath>
</defs>
</svg>
