<svg width="33" height="55" viewBox="0 0 33 55" fill="none" xmlns="http://www.w3.org/2000/svg">
<path d="M0.852173 1.53919H11.868V11.8978H12.1335C12.5317 10.4369 13.1953 9.10892 14.1243 7.6481C15.0534 6.32008 16.3806 4.99205 17.7078 3.92963C19.1677 2.73441 20.6277 1.9376 22.353 1.14079C24.0784 0.47678 25.8038 0.0783691 27.6619 0.0783691C28.9891 0.0783691 29.9181 0.0783671 30.449 0.211169C30.9799 0.343971 31.5108 0.343978 32.0417 0.47678V11.765C31.2454 11.6322 30.3163 11.4994 29.52 11.3666C28.7237 11.2338 27.7946 11.2338 26.9983 11.2338C25.0075 11.2338 23.1494 11.6322 21.424 12.429C19.6986 13.2258 18.1059 14.421 16.7787 15.8818C15.4515 17.4755 14.3898 19.3347 13.7262 21.5923C12.9298 23.85 12.5316 26.506 12.5316 29.4276V54.7929H0.852173V1.53919Z" fill="white"/>
</svg>
