<svg width="48" height="57" viewBox="0 0 48 57" fill="none" xmlns="http://www.w3.org/2000/svg">
<path d="M11.583 37.7942C11.9812 41.247 13.1757 43.6375 15.5647 44.9655C17.8209 46.2935 20.6081 47.0903 23.6607 47.0903C24.7224 47.0903 26.0497 46.9575 27.3769 46.8247C28.8368 46.6919 30.164 46.2935 31.3585 45.8951C32.553 45.3639 33.6148 44.6999 34.4111 43.7703C35.2074 42.8407 35.6056 41.6454 35.4729 40.0518C35.3401 38.591 34.8093 37.263 33.8802 36.3334C32.8184 35.4038 31.4912 34.6069 29.8986 34.0757C28.3059 33.5445 26.4478 33.0133 24.3243 32.6149C22.2007 32.2165 20.2099 31.8181 18.0864 31.2869C15.8301 30.7557 13.7066 30.2245 11.7157 29.5605C9.72492 28.8965 7.86681 27.9668 6.27416 26.7716C4.6815 25.5764 3.35429 24.1156 2.42524 22.2563C1.49619 20.3971 0.965301 18.1395 0.965301 15.4834C0.965301 12.5618 1.62892 10.1713 3.08885 8.17931C4.54879 6.18728 6.27416 4.59365 8.39771 3.39843C10.5212 2.20322 12.9102 1.4064 15.5647 0.875192C18.2191 0.343984 20.7408 0.211182 23.1298 0.211182C25.9169 0.211182 28.5714 0.476792 30.9603 1.1408C33.4821 1.67201 35.7383 2.73443 37.7291 3.92965C39.7199 5.25767 41.4453 6.9841 42.7725 8.97613C44.0998 11.101 44.8961 13.6242 45.2943 16.5458H33.0839C32.553 13.757 31.2258 11.8978 29.235 10.8354C27.2441 9.90574 24.8552 9.37453 22.3335 9.37453C21.5371 9.37453 20.4754 9.50734 19.4136 9.64014C18.2191 9.77294 17.1573 10.0385 16.2283 10.437C15.1665 10.8354 14.3702 11.3666 13.7066 12.0306C13.043 12.6946 12.6448 13.757 12.6448 14.8194C12.6448 16.2802 13.1757 17.4755 14.1047 18.2723C15.1665 19.2019 16.361 19.8659 18.0864 20.5299C19.679 21.0611 21.5371 21.5923 23.6607 21.9907C25.7842 22.3891 27.9078 22.7875 30.0313 23.3188C32.1548 23.85 34.2784 24.3812 36.2692 25.0452C38.3927 25.7092 40.1181 26.6388 41.8435 27.834C43.4362 29.0292 44.7634 30.4901 45.8251 32.2165C46.7542 33.9429 47.2851 36.2006 47.2851 38.8566C47.2851 42.0439 46.6215 44.6999 45.1615 46.9575C43.7016 49.2152 41.8435 50.9416 39.5872 52.2696C37.331 53.5976 34.6765 54.6601 31.8894 55.3241C29.1022 55.9881 26.3151 56.2537 23.5279 56.2537C20.2099 56.2537 17.0246 55.8553 14.2374 55.0585C11.3176 54.2617 8.9286 53.1992 6.80505 51.6056C4.68151 50.012 3.08884 48.1528 1.89435 45.7623C0.699854 43.5047 0.0362549 40.7158 0.0362549 37.5286H11.583V37.7942Z" fill="white"/>
</svg>
