<svg width="32" height="70" viewBox="0 0 32 70" fill="none" xmlns="http://www.w3.org/2000/svg">
<path d="M0.319336 16.0399H9.21169V0.103638H21.0239V16.0399H31.6416V24.8048H21.0239V53.2245C21.0239 54.4197 21.0239 55.4821 21.1566 56.4117C21.2893 57.3413 21.5548 58.0053 21.8202 58.6693C22.2184 59.3333 22.7493 59.7318 23.5456 59.9974C24.3419 60.263 25.271 60.3958 26.5982 60.3958C27.3945 60.3958 28.1909 60.3958 29.1199 60.3958C29.9162 60.3958 30.7126 60.263 31.6416 59.9974V69.0279C30.3144 69.1607 29.1199 69.2935 27.7927 69.4263C26.5982 69.5591 25.271 69.6919 23.9438 69.6919C20.8912 69.6919 18.3695 69.4263 16.5114 68.7623C14.6533 68.0983 13.1933 67.3015 12.1316 66.239C11.0698 65.0438 10.4062 63.7158 10.008 61.9894C9.60984 60.263 9.3444 58.2709 9.3444 56.1461V24.672H0.452065V16.0399H0.319336Z" fill="white"/>
</svg>
