<svg width="350" height="123" viewBox="0 0 350 123" fill="none" xmlns="http://www.w3.org/2000/svg">
<path d="M0.225189 0.361572H44.1116V8.54219H26.9089V54.4121H17.4279V8.54219H0.225189V0.361572Z" fill="white"/>
<path d="M49.1942 0.361572H57.8933V20.4235H58.0887C59.1639 18.6706 60.7278 17.2097 62.8781 16.0411C64.9307 14.8724 67.2766 14.2881 69.9156 14.2881C74.2163 14.2881 77.6372 15.3594 80.0808 17.5993C82.5244 19.8392 83.795 23.1504 83.795 27.6303V54.5094H75.0959V29.7728C74.9982 26.6564 74.314 24.4165 73.1411 23.053C71.9682 21.6896 70.0133 21.0079 67.472 21.0079C66.0059 21.0079 64.7352 21.3 63.5623 21.787C62.3894 22.2739 61.412 23.053 60.6301 24.0269C59.8481 25.0008 59.1639 26.0721 58.773 27.3381C58.2842 28.6042 58.0887 29.9676 58.0887 31.331V54.412H49.3897V0.361572H49.1942Z" fill="white"/>
<path d="M93.0805 0.361572H101.78V8.54219H93.0805V0.361572ZM93.0805 15.262H101.78V54.4121H93.0805V15.262Z" fill="white"/>
<path d="M117.712 41.8489C118.005 44.381 118.885 46.134 120.644 47.1079C122.306 48.0818 124.358 48.6661 126.606 48.6661C127.388 48.6661 128.366 48.5687 129.343 48.4713C130.418 48.374 131.396 48.0818 132.275 47.7896C133.155 47.4001 133.937 46.9131 134.523 46.2314C135.11 45.5497 135.403 44.6732 135.305 43.5045C135.208 42.4333 134.817 41.4594 134.132 40.7777C133.35 40.096 132.373 39.5116 131.2 39.1221C130.027 38.7325 128.659 38.343 127.095 38.0508C125.531 37.7586 124.065 37.4665 122.501 37.0769C120.839 36.6874 119.276 36.2978 117.809 35.8109C116.343 35.3239 114.975 34.6422 113.802 33.7657C112.629 32.8892 111.652 31.818 110.967 30.4545C110.283 29.0911 109.892 27.4355 109.892 25.4877C109.892 23.3452 110.381 21.5922 111.456 20.1314C112.531 18.6706 113.802 17.5019 115.366 16.6254C116.93 15.7489 118.689 15.1646 120.644 14.775C122.599 14.3855 124.456 14.2881 126.215 14.2881C128.268 14.2881 130.223 14.4829 131.982 14.9698C133.839 15.3594 135.501 16.1385 136.967 17.015C138.433 17.9888 139.704 19.2549 140.681 20.7157C141.659 22.2739 142.245 24.1243 142.538 26.2668H133.546C133.155 24.2217 132.178 22.8582 130.711 22.0791C129.245 21.3974 127.486 21.0079 125.629 21.0079C125.042 21.0079 124.26 21.1053 123.478 21.2027C122.599 21.3 121.817 21.4948 121.133 21.787C120.351 22.0791 119.764 22.4687 119.276 22.9556C118.787 23.4426 118.494 24.2217 118.494 25.0008C118.494 26.0721 118.885 26.9486 119.569 27.5329C120.351 28.2146 121.23 28.7015 122.501 29.1885C123.674 29.578 125.042 29.9676 126.606 30.2597C128.17 30.5519 129.734 30.8441 131.298 31.2336C132.862 31.6232 134.426 32.0127 135.892 32.4997C137.456 32.9866 138.726 33.6683 139.997 34.5448C141.17 35.4213 142.147 36.4926 142.929 37.7586C143.613 39.0247 144.004 40.6803 144.004 42.6281C144.004 44.9654 143.516 46.9131 142.441 48.5687C141.365 50.2243 139.997 51.4904 138.335 52.4643C136.674 53.4381 134.719 54.2172 132.666 54.7042C130.614 55.1911 128.561 55.3859 126.508 55.3859C124.065 55.3859 121.719 55.0937 119.667 54.5094C117.516 53.9251 115.757 53.146 114.193 51.9773C112.629 50.8087 111.456 49.4452 110.576 47.6922C109.697 46.0366 109.208 43.9915 109.208 41.6542H117.712V41.8489Z" fill="white"/>
<path d="M187.011 33.1814L166.681 0.361572H177.726L192.094 24.6113L206.266 0.361572H216.92L196.688 33.1814V54.4121H187.207V33.1814H187.011Z" fill="white"/>
<path d="M220.634 37.0769C220.634 38.6351 220.83 40.0959 221.319 41.4594C221.71 42.9202 222.394 44.0888 223.274 45.1601C224.153 46.2314 225.228 47.1079 226.499 47.6922C227.77 48.2765 229.431 48.6661 231.191 48.6661C233.732 48.6661 235.785 48.0818 237.348 47.0105C238.912 45.9392 240.085 44.2836 240.769 42.1411H248.98C248.491 44.2836 247.709 46.134 246.634 47.7896C245.559 49.4452 244.19 50.8086 242.627 51.9773C241.063 53.146 239.303 53.9251 237.348 54.5094C235.394 55.0937 233.341 55.3859 231.191 55.3859C228.063 55.3859 225.326 54.8989 222.98 53.8277C220.634 52.8538 218.582 51.393 216.92 49.5426C215.259 47.6922 213.988 45.5497 213.206 43.0176C212.326 40.4855 211.935 37.7586 211.935 34.7396C211.935 32.0127 212.424 29.2858 213.304 26.8511C214.183 24.319 215.454 22.1765 217.116 20.2287C218.777 18.3783 220.732 16.8201 223.078 15.7489C225.424 14.6776 228.063 14.0933 230.995 14.0933C234.123 14.0933 236.86 14.775 239.303 16.041C241.747 17.3071 243.799 19.0601 245.461 21.1052C247.123 23.2478 248.296 25.6825 248.98 28.4093C249.762 31.1362 249.86 33.9605 249.566 36.8821H220.634V37.0769ZM240.867 31.331C240.769 29.9675 240.476 28.7015 239.987 27.4354C239.499 26.1694 238.815 25.0981 238.033 24.1243C237.153 23.1504 236.176 22.4687 235.003 21.8843C233.83 21.3 232.461 21.0078 230.995 21.0078C229.431 21.0078 228.063 21.3 226.89 21.7869C225.619 22.2739 224.544 23.053 223.664 24.0269C222.785 25.0007 222.101 26.072 221.514 27.3381C221.025 28.6041 220.732 29.9675 220.634 31.4284H240.867V31.331Z" fill="white"/>
<path d="M289.054 45.6471C289.054 46.7184 289.152 47.4975 289.445 47.887C289.738 48.374 290.227 48.5688 291.107 48.5688C291.4 48.5688 291.693 48.5688 291.986 48.5688C292.377 48.5688 292.768 48.4714 293.159 48.374V54.3147C292.866 54.4121 292.475 54.5094 291.986 54.7042C291.498 54.8016 291.009 54.899 290.52 54.9964C290.032 55.0938 289.543 55.1912 288.956 55.1912C288.468 55.2885 287.979 55.2886 287.686 55.2886C285.926 55.2886 284.46 54.899 283.287 54.2173C282.114 53.5356 281.332 52.2695 281.039 50.5165C279.28 52.1721 277.227 53.4382 274.686 54.1199C272.145 54.899 269.799 55.2886 267.453 55.2886C265.694 55.2886 264.032 55.0938 262.37 54.6068C260.709 54.1199 259.34 53.4382 258.07 52.4643C256.799 51.4904 255.822 50.3217 255.137 48.8609C254.356 47.4001 254.062 45.7445 254.062 43.7967C254.062 41.362 254.551 39.4143 255.431 37.8561C256.31 36.2978 257.483 35.1292 258.949 34.2527C260.416 33.3762 261.979 32.7919 263.837 32.4023C265.596 32.0128 267.453 31.7206 269.31 31.5258C270.874 31.2337 272.34 31.0389 273.806 30.8441C275.272 30.7467 276.445 30.5519 277.521 30.1624C278.596 29.8702 279.475 29.3833 280.062 28.799C280.648 28.2146 281.039 27.2407 281.039 25.9747C281.039 24.9034 280.746 23.9295 280.257 23.2478C279.769 22.5661 279.084 21.9818 278.302 21.5922C277.521 21.2027 276.641 21.0079 275.663 20.8131C274.686 20.7157 273.806 20.6183 272.927 20.6183C270.483 20.6183 268.528 21.1053 266.964 22.1766C265.4 23.1504 264.521 24.7086 264.325 26.8512H255.626C255.822 24.3191 256.408 22.2739 257.483 20.6183C258.558 18.9627 259.927 17.5993 261.588 16.6254C263.25 15.6515 265.107 14.8724 267.16 14.4829C269.212 14.0933 271.363 13.8986 273.513 13.8986C275.468 13.8986 277.325 14.0933 279.182 14.4829C281.039 14.8724 282.701 15.5542 284.265 16.4307C285.731 17.3071 287.002 18.4758 287.881 19.9366C288.761 21.3974 289.25 23.1504 289.25 25.1956V45.6471H289.054ZM280.355 34.7396C279.084 35.6161 277.423 36.1031 275.468 36.2978C273.513 36.4926 271.656 36.7848 269.701 37.077C268.821 37.2717 267.942 37.4665 267.062 37.7587C266.182 38.0508 265.4 38.4404 264.814 38.9273C264.13 39.4143 263.641 39.9986 263.25 40.7777C262.859 41.5568 262.664 42.5307 262.664 43.602C262.664 44.5758 262.957 45.355 263.543 46.0367C264.13 46.7184 264.814 47.2053 265.596 47.5949C266.378 47.9844 267.258 48.2766 268.137 48.374C269.115 48.5688 269.897 48.5688 270.679 48.5688C271.656 48.5688 272.633 48.4714 273.806 48.1792C274.881 47.887 275.957 47.4975 276.934 46.9132C277.911 46.3288 278.791 45.5497 279.378 44.5758C280.062 43.602 280.355 42.5307 280.355 41.1673V34.7396Z" fill="white"/>
<path d="M298.34 15.2619H306.452V22.8582H306.648C306.941 21.787 307.43 20.8131 308.114 19.7418C308.798 18.7679 309.776 17.794 310.753 17.0149C311.828 16.1384 312.903 15.5541 314.174 14.9698C315.445 14.4828 316.715 14.1907 318.084 14.1907C319.061 14.1907 319.745 14.1907 320.136 14.2881C320.527 14.3854 320.918 14.3855 321.309 14.4828V22.7608C320.723 22.6635 320.039 22.5661 319.452 22.4687C318.866 22.3713 318.182 22.3713 317.595 22.3713C316.129 22.3713 314.761 22.6635 313.49 23.2478C312.219 23.8321 311.046 24.7086 310.069 25.7799C309.091 26.9485 308.31 28.312 307.821 29.9676C307.234 31.6232 306.941 33.5709 306.941 35.7135V54.3146H298.34V15.2619Z" fill="white"/>
<path d="M16.0594 67.4621H26.1269L50.8557 107.294H51.0512V67.4621H60.0435V121.513H50.0738L25.3449 81.7782H25.1495V121.513H16.1572V67.4621H16.0594Z" fill="white"/>
<path d="M76.8553 104.177C76.8553 105.736 77.0508 107.197 77.5395 108.56C77.9304 110.021 78.6146 111.189 79.4943 112.261C80.374 113.332 81.4492 114.208 82.7198 114.793C83.9905 115.377 85.6521 115.767 87.4115 115.767C89.9528 115.767 92.0054 115.182 93.5692 114.111C95.1331 113.04 96.306 111.384 96.9902 109.242H105.201C104.712 111.384 103.93 113.235 102.855 114.89C101.78 116.546 100.411 117.909 98.8473 119.078C97.2834 120.247 95.5241 121.026 93.5692 121.61C91.6144 122.194 89.5618 122.486 87.4115 122.486C84.2837 122.486 81.5469 122 79.2011 120.928C76.8553 119.954 74.8027 118.494 73.1411 116.643C71.4794 114.793 70.2088 112.65 69.4268 110.118C68.5472 107.586 68.1562 104.859 68.1562 101.84C68.1562 99.1133 68.6449 96.3864 69.5246 93.9517C70.4043 91.4196 71.6749 89.2771 73.3365 87.3293C74.9982 85.4789 76.953 83.9207 79.2988 82.8495C81.6447 81.7782 84.2837 81.1938 87.216 81.1938C90.3437 81.1938 93.0805 81.8756 95.5241 83.1416C97.9676 84.4077 100.02 86.1607 101.682 88.2058C103.343 90.3484 104.516 92.7831 105.201 95.5099C105.983 98.2368 106.08 101.061 105.787 103.983H76.8553V104.177ZM97.088 98.529C96.9902 97.1655 96.697 95.8995 96.2083 94.6334C95.7196 93.3674 95.0354 92.2961 94.2534 91.3222C93.3737 90.3483 92.3963 89.6666 91.2234 89.0823C90.0505 88.498 88.6821 88.2058 87.216 88.2058C85.6521 88.2058 84.2837 88.498 83.1108 88.9849C81.8401 89.4718 80.765 90.251 79.8853 91.2248C79.0056 92.1987 78.3214 93.27 77.735 94.536C77.2462 95.8021 76.953 97.1655 76.8553 98.6263H97.088V98.529Z" fill="white"/>
<path d="M122.892 100.964L109.306 82.4598H119.764L127.975 94.536L136.576 82.4598H146.643L133.253 100.574L148.305 121.61H137.944L127.975 107.196L118.298 121.61H108.133L122.892 100.964Z" fill="white"/>
<path d="M149.185 82.3624H155.734V70.6758H164.433V82.3624H172.252V88.79H164.433V109.631C164.433 110.508 164.433 111.287 164.53 111.968C164.628 112.65 164.824 113.137 165.019 113.624C165.312 114.111 165.703 114.403 166.29 114.598C166.876 114.793 167.56 114.89 168.538 114.89C169.124 114.89 169.711 114.89 170.395 114.89C170.981 114.89 171.568 114.793 172.252 114.598V121.22C171.275 121.318 170.395 121.415 169.418 121.512C168.538 121.61 167.56 121.707 166.583 121.707C164.335 121.707 162.478 121.512 161.109 121.026C159.741 120.539 158.666 119.954 157.884 119.175C157.102 118.299 156.613 117.325 156.32 116.059C156.027 114.793 155.831 113.332 155.831 111.774V88.6927H149.283V82.3624H149.185Z" fill="white"/>
<path d="M214.868 100.379L194.537 67.5595H205.582L219.95 91.8092L234.123 67.5595H244.777L224.544 100.379V121.61H215.063V100.379H214.868Z" fill="white"/>
<path d="M248.491 104.177C248.491 105.736 248.687 107.197 249.175 108.56C249.566 110.021 250.25 111.189 251.13 112.261C252.01 113.332 253.085 114.208 254.356 114.793C255.626 115.377 257.288 115.767 259.047 115.767C261.589 115.767 263.641 115.182 265.205 114.111C266.769 113.04 267.942 111.384 268.626 109.242H276.836C276.348 111.384 275.566 113.235 274.491 114.89C273.415 116.546 272.047 117.909 270.483 119.078C268.919 120.247 267.16 121.026 265.205 121.61C263.25 122.194 261.198 122.486 259.047 122.486C255.919 122.486 253.183 122 250.837 120.928C248.491 119.954 246.438 118.494 244.777 116.643C243.115 114.793 241.845 112.65 241.063 110.118C240.183 107.586 239.792 104.859 239.792 101.84C239.792 99.1133 240.281 96.3864 241.16 93.9517C242.04 91.4196 243.311 89.2771 244.972 87.3293C246.634 85.4789 248.589 83.9207 250.935 82.8495C253.28 81.7782 255.92 81.1938 258.852 81.1938C261.98 81.1938 264.716 81.8756 267.16 83.1416C269.603 84.4077 271.656 86.1607 273.318 88.2058C274.979 90.3484 276.152 92.7831 276.836 95.5099C277.618 98.2368 277.716 101.061 277.423 103.983H248.491V104.177ZM268.724 98.529C268.626 97.1655 268.333 95.8995 267.844 94.6334C267.355 93.3674 266.671 92.2961 265.889 91.3222C265.01 90.3483 264.032 89.6666 262.859 89.0823C261.686 88.498 260.318 88.2058 258.852 88.2058C257.288 88.2058 255.92 88.498 254.747 88.9849C253.476 89.4718 252.401 90.251 251.521 91.2248C250.641 92.1987 249.957 93.27 249.371 94.536C248.882 95.8021 248.589 97.1655 248.491 98.6263H268.724V98.529Z" fill="white"/>
<path d="M316.911 112.845C316.911 113.916 317.009 114.695 317.302 115.085C317.595 115.572 318.084 115.767 318.963 115.767C319.257 115.767 319.55 115.767 319.843 115.767C320.234 115.767 320.625 115.669 321.016 115.572V121.513C320.723 121.61 320.332 121.707 319.843 121.902C319.354 122 318.866 122.097 318.377 122.194C317.888 122.292 317.4 122.389 316.813 122.389C316.324 122.486 315.836 122.486 315.543 122.486C313.783 122.486 312.317 122.097 311.144 121.415C309.971 120.733 309.189 119.467 308.896 117.714C307.137 119.37 305.084 120.636 302.543 121.318C300.001 122.097 297.656 122.486 295.31 122.486C293.55 122.486 291.889 122.292 290.227 121.805C288.566 121.318 287.197 120.636 285.927 119.662C284.656 118.688 283.678 117.52 282.994 116.059C282.212 114.598 281.919 112.942 281.919 110.995C281.919 108.56 282.408 106.612 283.288 105.054C284.167 103.496 285.34 102.327 286.806 101.451C288.272 100.574 289.836 99.9898 291.693 99.6002C293.453 99.2107 295.31 98.9185 297.167 98.7237C298.731 98.4316 300.197 98.2368 301.663 98.042C303.129 97.9446 304.302 97.7499 305.377 97.3603C306.452 97.0682 307.332 96.5812 307.919 95.9969C308.505 95.4126 308.896 94.4387 308.896 93.1726C308.896 92.1014 308.603 91.1275 308.114 90.4458C307.625 89.764 306.941 89.1797 306.159 88.7902C305.377 88.4006 304.498 88.2058 303.52 88.011C302.543 87.9137 301.663 87.8163 300.783 87.8163C298.34 87.8163 296.385 88.3032 294.821 89.3745C293.257 90.3484 292.378 91.9066 292.182 94.0491H283.483C283.678 91.517 284.265 89.4719 285.34 87.8163C286.415 86.1607 287.784 84.7972 289.445 83.8234C291.107 82.8495 292.964 82.0704 295.017 81.6808C297.069 81.2913 299.22 81.0965 301.37 81.0965C303.325 81.0965 305.182 81.2913 307.039 81.6808C308.896 82.0704 310.558 82.7521 312.122 83.6286C313.588 84.5051 314.858 85.6737 315.738 87.1346C316.618 88.5954 317.106 90.3484 317.106 92.3935V112.845H316.911ZM308.212 101.938C306.941 102.814 305.28 103.301 303.325 103.496C301.37 103.691 299.513 103.983 297.558 104.275C296.678 104.47 295.799 104.664 294.919 104.957C294.039 105.249 293.257 105.638 292.671 106.125C291.987 106.612 291.498 107.197 291.107 107.976C290.716 108.755 290.52 109.729 290.52 110.8C290.52 111.774 290.814 112.553 291.4 113.235C291.987 113.916 292.671 114.403 293.453 114.793C294.235 115.182 295.114 115.475 295.994 115.572C296.971 115.767 297.753 115.767 298.535 115.767C299.513 115.767 300.49 115.669 301.663 115.377C302.738 115.085 303.813 114.695 304.791 114.111C305.768 113.527 306.648 112.748 307.234 111.774C307.919 110.8 308.212 109.729 308.212 108.365V101.938Z" fill="white"/>
<path d="M326.196 82.3625H334.309V89.9588H334.505C334.798 88.8875 335.286 87.9137 335.971 86.8424C336.655 85.8685 337.632 84.8946 338.61 84.1155C339.685 83.239 340.76 82.6547 342.031 82.0704C343.301 81.5834 344.572 81.2913 345.94 81.2913C346.918 81.2913 347.602 81.2913 347.993 81.3887C348.384 81.486 348.775 81.486 349.166 81.5834V89.8614C348.579 89.764 347.895 89.6666 347.309 89.5693C346.722 89.4719 346.038 89.4719 345.452 89.4719C343.986 89.4719 342.617 89.764 341.347 90.3484C340.076 90.9327 338.903 91.8092 337.926 92.8804C336.948 94.0491 336.166 95.4125 335.677 97.0681C335.091 98.7237 334.798 100.672 334.798 102.814V121.415H326.099V82.3625H326.196Z" fill="white"/>
</svg>
